HIERARCHY
ROOT Root
{
  OFFSET 2.04889 11.7575 19.7971
  CHANNELS 6 Xposition Yposition Zposition Zrotation Xrotation Yrotation
  JOINT Spine
  {
    OFFSET 5.3114 0 0
    CHANNELS 3 Zrotation Xrotation Yrotation
    JOINT Spine1
    {
      OFFSET 2.79004 0 0
      CHANNELS 3 Zrotation Xrotation Yrotation
      JOINT Neck
      {
        OFFSET 1.43377 0 0
        CHANNELS 3 Zrotation Xrotation Yrotation
        JOINT Head
        {
          OFFSET 1.86043 0 0
          CHANNELS 3 Zrotation Xrotation Yrotation
          End Site
          {
            OFFSET 0 0 0
          }
        }
      }
      JOINT LeftArm
      {
        OFFSET 0.0387506 0 2.55754
        CHANNELS 3 Zrotation Xrotation Yrotation
        JOINT LeftForeArm
        {
          OFFSET 4.24845 0 0
          CHANNELS 3 Zrotation Xrotation Yrotation
          JOINT LeftHand
          {
            OFFSET 4.01008 0 0
            CHANNELS 3 Zrotation Xrotation Yrotation
            End Site
            {
              OFFSET 0 0 0
            }
          }
        }
      }
      JOINT RightArm
      {
        OFFSET 0.0387506 0 -2.55754
        CHANNELS 3 Zrotation Xrotation Yrotation
        JOINT RightForeArm
        {
          OFFSET -4.24845 0 0
          CHANNELS 3 Zrotation Xrotation Yrotation
          JOINT RightHand
          {
            OFFSET -4.01009 0 0
            CHANNELS 3 Zrotation Xrotation Yrotation
            End Site
            {
              OFFSET 0 0 0
            }
          }
        }
      }
    }
  }
  JOINT LeftUpLeg
  {
    OFFSET -1.23318 0 2.05692
    CHANNELS 3 Zrotation Xrotation Yrotation
    JOINT LeftLeg
    {
      OFFSET 5.46397 0 0
      CHANNELS 3 Zrotation Xrotation Yrotation
      JOINT LeftFoot
      {
        OFFSET 4.68898 0 0
        CHANNELS 3 Zrotation Xrotation Yrotation
        End Site
        {
          OFFSET 0 0 0
        }
      }
    }
  }
  JOINT RightUpLeg
  {
    OFFSET -1.24454 0 -2.05007
    CHANNELS 3 Zrotation Xrotation Yrotation
    JOINT RightLeg
    {
      OFFSET -5.46397 0 0
      CHANNELS 3 Zrotation Xrotation Yrotation
      JOINT RightFoot
      {
        OFFSET -4.68901 0 0
        CHANNELS 3 Zrotation Xrotation Yrotation
        End Site
        {
          OFFSET 0 0 0
        }
      }
    }
  }
}
MOTION
Frames:	10
Frame Time:	0.0416667
2.04889 11.7575 19.7971 -0 90 90 9.69808e-018 1.34041e-020 0.158382 1.41245e-030 7.06225e-031 2.48481e-017 -7.30747e-017 7.61111e-019 -1.19349 3.40995e-017 1.65719e-019 0.556895 -2.12238e-008 -1.53545e-005 -90.1584 -2.50273e-005 -2.47192e-012 6.55612e-006 1.52588e-005 -6.98387e-015 174.455 180 -4.60993e-005 -89.8417 -5.49628e-005 -2.25992e-011 3.612e-005 1.52588e-005 6.98379e-015 174.448 -7.98974 0.147558 179.352 -17.3624 0.125363 -0.839332 9.37147 0.069022 -178.489 -179.976 -0.00013732 179.352 0.00290602 0.000245072 -0.879569 0.0213273 0.000213575 -178.789 
1.08228 11.2972 18.4355 119.16 -21.6598 -2.48959 -22.9888 -1.3675 -7.89665 -1.2259 -1.23894 5.98746 -11.3343 -1.24312 1.05797 7.95084 -2.53005 15.313 6.74388 -45.5807 -161.899 31.8699 0.441305 18.79 -7.42642 -42.6671 171.599 -163.366 -12.7963 -169.937 35.9589 1.20612 21.1498 -0.68277 -4.84746 174.428 -43.2511 -12.3933 -177.177 -41.4429 0.679155 -0.805128 21.428 -12.3535 -175.937 135.759 -24.959 169.684 -26.1186 0.575843 -0.615059 12.2445 -9.27466 -177.175 
1.16296 11.3677 18.4303 117.166 -14.6902 -2.21685 -20.8083 -1.44513 -7.04335 -1.11251 -1.15461 5.58431 -10.4778 -1.29368 0.531013 7.17997 -2.61469 13.8029 9.12612 -38.3886 -156.631 27.931 0.119515 16.4806 -6.73264 -39.8342 172.013 -162.979 -11.8165 -163.873 35.0193 1.43717 20.5526 -0.737406 -5.2344 174.425 -39.8887 -11.4324 -176.627 -38.8059 0.646827 -0.833442 20.0259 -11.4852 -176.455 141.33 -24.0666 174.249 -23.9752 0.532528 -0.639355 9.9486 -12.4494 -176.949 
1.17135 11.4008 18.3227 116.813 -14.9285 -1.97927 -20.4114 -1.32727 -6.78456 -0.988736 -1.08107 5.41952 -10.3592 -1.26342 0.626389 6.76733 -2.61451 13.1277 8.9164 -35.7728 -156.446 26.8256 -0.0388916 15.8366 -6.88491 -40.4629 171.915 -162.693 -11.5867 -163.668 36.1607 1.69797 21.1971 -0.764792 -5.42838 174.423 -38.7704 -11.2973 -176.096 -37.653 0.643035 -0.841256 19.361 -11.5302 -176.784 143.604 -24.1338 178.003 -23.8326 0.523969 -0.626129 8.64674 -14.5277 -177.044 
1.17938 11.4265 18.1929 116.59 -15.1626 -1.46678 -20.4183 -0.998573 -6.69876 -0.787653 -0.969988 5.52982 -10.3845 -1.11537 0.659844 6.67483 -2.32867 12.6557 9.25061 -33.6284 -156.215 26.295 -0.110465 15.5268 -6.93602 -40.6711 171.881 -162.369 -11.1434 -163.457 36.8922 1.87202 21.6084 -0.757616 -5.37755 174.423 -37.629 -10.9521 -175.669 -36.2923 0.627553 -0.832428 18.6727 -11.536 -177.112 145.44 -24.2422 -178.516 -23.7254 0.52898 -0.641474 7.70236 -15.257 -177.304 
1.18438 11.44 18.0448 116.318 -15.0324 -0.800993 -20.5425 -0.656509 -6.85867 -0.674096 -0.879114 5.76696 -10.2458 -0.962912 0.484029 6.64116 -2.00611 12.6079 10.2319 -32.3034 -155.697 26.1463 -0.130266 15.4398 -6.86579 -40.3847 171.927 -161.97 -10.597 -163.373 37.0432 1.90861 21.6931 -0.747355 -5.30503 174.424 -36.4626 -10.4583 -175.453 -34.8024 0.60577 -0.809831 17.9999 -11.2337 -177.461 147.256 -24.5532 -175.309 -23.4302 0.532818 -0.66253 7.20245 -15.5999 -177.496 
1.18279 11.4393 17.88 115.921 -14.4279 -0.114964 -20.7452 -0.279717 -7.14429 -0.581663 -0.78731 5.72113 -9.99291 -0.864321 0.599447 6.79286 -1.82803 12.4286 11.7405 -31.6067 -154.571 26.1563 -0.129164 15.4458 -6.70965 -39.7383 172.027 -161.66 -9.94594 -163.757 36.4801 1.77308 21.3769 -0.695493 -4.93788 174.427 -35.3124 -10.1472 -175.458 -33.4538 0.586792 -0.785553 17.4218 -10.7525 -177.775 149.433 -25.2157 -172.464 -22.8476 0.526636 -0.673477 6.72369 -16.0934 -177.653 
1.16826 11.4195 17.6959 115.307 -13.4977 0.437791 -21.0223 -0.137491 -7.23712 -0.363109 -0.745241 5.51338 -9.80486 -0.657394 0.840163 7.35794 -1.42346 11.9445 13.2186 -30.5207 -153.478 26.3015 -0.109656 15.5306 -6.53285 -38.9914 172.14 -161.508 -9.4482 -164.083 35.2161 1.48092 20.6641 -0.612729 -4.35148 174.432 -34.2863 -9.9618 -175.48 -32.7809 0.584508 -0.776134 17.2639 -10.1754 -177.972 152.131 -26.3631 -170.189 -21.8985 0.513082 -0.690614 5.13521 -15.3108 -178.218 
1.16304 11.3777 17.4893 114.808 -12.4446 1.0487 -21.6565 -0.0840195 -7.20413 -0.147484 -0.739411 5.19921 -9.46323 -0.302065 1.04294 8.13863 -0.729184 11.2586 14.1882 -28.2485 -152.893 26.4576 -0.0888757 15.6218 -6.35047 -38.2038 172.253 -161.438 -8.94722 -164.336 33.5193 1.11471 19.7004 -0.523988 -3.72267 174.437 -33.7255 -9.78085 -175.449 -32.7599 0.598907 -0.781616 17.4428 -9.5668 -178.053 154.289 -27.2796 -168.785 -21.235 0.503351 -0.70539 3.33279 -12.9538 -178.881 
1.16019 11.3228 17.2633 114.099 -11.3271 1.86609 -22.1454 0.0110812 -7.26904 0.0339133 -0.723756 4.85223 -9.16175 0.247681 1.29203 9.1532 0.331161 10.1702 14.5776 -24.9335 -152.757 26.7883 -0.0441494 15.8148 -6.23895 -37.7135 172.322 -161.541 -8.54147 -164.475 31.5899 0.734583 18.5962 -0.470442 -3.343 174.44 -33.0584 -9.73385 -175.621 -32.8644 0.612281 -0.788106 17.5192 -9.16351 -178.08 155.411 -26.0246 -168.279 -21.8274 0.513399 -0.701729 6.2157 -12.8976 -178.281 
